<svg width="3256" height="3256" viewBox="0 0 3256 3256" fill="none" xmlns="http://www.w3.org/2000/svg">
<path d="M1628 3253.2C2525.57 3253.2 3253.2 2525.57 3253.2 1628C3253.2 730.426 2525.57 2.79883 1628 2.79883C730.427 2.79883 2.7998 730.426 2.7998 1628C2.7998 2525.57 730.427 3253.2 1628 3253.2Z" stroke="#4A3AFF" stroke-width="5" stroke-linecap="round" stroke-linejoin="round"/>
<path d="M1628 2573.43C2150.14 2573.43 2573.43 2150.15 2573.43 1628C2573.43 1105.85 2150.14 682.572 1628 682.572C1105.85 682.572 682.571 1105.85 682.571 1628C682.571 2150.15 1105.85 2573.43 1628 2573.43Z" stroke="#4A3AFF" stroke-width="5" stroke-linecap="round" stroke-linejoin="round"/>
<path d="M1628 2063.57C1868.56 2063.57 2063.57 1868.56 2063.57 1628C2063.57 1387.44 1868.56 1192.43 1628 1192.43C1387.44 1192.43 1192.43 1387.44 1192.43 1628C1192.43 1868.56 1387.44 2063.57 1628 2063.57Z" stroke="#4A3AFF" stroke-width="5" stroke-linecap="round" stroke-linejoin="round"/>
<path d="M1628 1893.65C1774.72 1893.65 1893.65 1774.72 1893.65 1628C1893.65 1481.28 1774.72 1362.35 1628 1362.35C1481.28 1362.35 1362.35 1481.28 1362.35 1628C1362.35 1774.72 1481.28 1893.65 1628 1893.65Z" stroke="#4A3AFF" stroke-width="5" stroke-linecap="round" stroke-linejoin="round"/>
</svg>
